<svg xmlns="http://www.w3.org/2000/svg" viewBox="0 0 48 48" fill="none">
  <!-- Monitor frame left bracket -->
  <rect x="2" y="16" width="2.5" height="20" rx="1" fill="#7B5CF5"/>
  <rect x="2" y="16" width="7" height="2.5" rx="1" fill="#7B5CF5"/>
  <rect x="2" y="33.5" width="7" height="2.5" rx="1" fill="#7B5CF5"/>
  <!-- Monitor frame right bracket -->
  <rect x="43.5" y="16" width="2.5" height="20" rx="1" fill="#7B5CF5"/>
  <rect x="39" y="16" width="7" height="2.5" rx="1" fill="#7B5CF5"/>
  <rect x="39" y="33.5" width="7" height="2.5" rx="1" fill="#7B5CF5"/>
  <!-- Stand -->
  <rect x="20" y="37" width="8" height="2.5" rx="1.2" fill="#7B5CF5"/>
  <rect x="23" y="35" width="2" height="3" rx="1" fill="#7B5CF5"/>
  <!-- Book left page -->
  <path d="M10 37 C10 37 11 26 18 20 C21 18 23 17 24 17 L24 37 Z" fill="#7B5CF5"/>
  <!-- Book right page -->
  <path d="M38 37 C38 37 37 26 30 20 C27 18 25 17 24 17 L24 37 Z" fill="#7B5CF5"/>
  <!-- Book spine -->
  <ellipse cx="24" cy="37" rx="14" ry="1.5" fill="#6347D9"/>
  <!-- Book arch -->
  <path d="M17 19 C19 14 24 12 24 12 C24 12 29 14 31 19" stroke="#7B5CF5" stroke-width="1.8" fill="none" stroke-linecap="round"/>
  <!-- Head silhouette -->
  <circle cx="22" cy="27" r="4" fill="none" stroke="#7B5CF5" stroke-width="1.2"/>
  <path d="M25 28 L27 30 L26 31" fill="none" stroke="#7B5CF5" stroke-width="1" stroke-linecap="round" stroke-linejoin="round"/>
  <!-- Sound waves -->
  <path d="M27 29 C29 27.5 29 31 27 30" fill="none" stroke="#7B5CF5" stroke-width="1" stroke-linecap="round"/>
  <path d="M28 28 C30.5 26 31 32 28 31" fill="none" stroke="#7B5CF5" stroke-width="1" stroke-linecap="round"/>
  <!-- Pixel squares -->
  <rect x="35" y="6" width="4" height="4" rx="0.8" fill="#7B5CF5"/>
  <rect x="35" y="11" width="4" height="4" rx="0.8" fill="#7B5CF5"/>
  <rect x="40" y="8" width="3" height="3" rx="0.6" fill="#7B5CF5"/>
  <rect x="40" y="4" width="2.5" height="2.5" rx="0.5" fill="#7B5CF5"/>
</svg>
