<svg width="454" height="600" viewBox="0 0 454 600" fill="none" xmlns="http://www.w3.org/2000/svg" role="img" aria-label="Carte de progression">
  <defs>
    <linearGradient id="bgGradient" x1="227" y1="18" x2="227" y2="582" gradientUnits="userSpaceOnUse">
      <stop offset="0" stop-color="#DAF6AA"/>
      <stop offset="1" stop-color="#59C554"/>
    </linearGradient>
    <linearGradient id="rimGradient" x1="227" y1="32" x2="227" y2="590" gradientUnits="userSpaceOnUse">
      <stop offset="0" stop-color="#8A5B2B"/>
      <stop offset="1" stop-color="#57351D"/>
    </linearGradient>
    <linearGradient id="pathGradient" x1="84" y1="111" x2="370" y2="560" gradientUnits="userSpaceOnUse">
      <stop offset="0" stop-color="#F4D8A5"/>
      <stop offset="1" stop-color="#EDC887"/>
    </linearGradient>
    <radialGradient id="waterGradient" cx="0" cy="0" r="1" gradientUnits="userSpaceOnUse" gradientTransform="translate(224 410) rotate(90) scale(54 70)">
      <stop offset="0" stop-color="#7EE7FF"/>
      <stop offset="1" stop-color="#34B9E9"/>
    </radialGradient>
    <filter id="softShadow" x="10" y="20" width="434" height="565" filterUnits="userSpaceOnUse" color-interpolation-filters="sRGB">
      <feDropShadow dx="0" dy="10" stdDeviation="8" flood-color="#1F6F1C" flood-opacity="0.35"/>
    </filter>
  </defs>

  <g filter="url(#softShadow)">
    <path d="M49 178C69 106 157 71 226 76C302 81 384 130 405 205C424 273 406 349 402 419C398 482 363 544 301 565C255 580 203 579 157 567C99 553 53 508 44 447C34 378 26 255 49 178Z" fill="url(#rimGradient)"/>
    <path d="M61 175C80 115 160 90 226 94C295 98 367 141 385 209C402 272 387 343 383 410C379 467 348 518 292 537C251 550 205 550 165 539C112 526 75 487 67 432C58 372 42 252 61 175Z" fill="url(#bgGradient)"/>
  </g>

  <ellipse cx="227" cy="262" rx="68" ry="42" fill="#6CCB4B" opacity="0.7"/>
  <ellipse cx="318" cy="292" rx="48" ry="32" fill="#7CD55D" opacity="0.75"/>
  <ellipse cx="126" cy="352" rx="58" ry="36" fill="#77CE56" opacity="0.7"/>
  <ellipse cx="230" cy="474" rx="86" ry="46" fill="#89DD61" opacity="0.72"/>

  <path d="M225 378L194 357L205 347L236 369L257 356L266 367L238 383L234 411L219 410L225 378Z" fill="#8A5527"/>
  <path d="M186 363L235 396" stroke="#B1733B" stroke-width="4" stroke-linecap="round"/>
  <path d="M213 350L261 383" stroke="#B1733B" stroke-width="4" stroke-linecap="round"/>

  <ellipse cx="226" cy="409" rx="58" ry="34" fill="url(#waterGradient)"/>

  <path d="M224 116C194 116 154 127 131 153C108 180 107 214 134 233C161 253 201 248 238 254C274 259 305 277 306 307C307 338 272 354 241 363C210 372 179 376 149 387C118 398 90 417 89 447C88 481 126 497 161 504C197 512 240 510 273 499C307 488 339 468 349 438C360 407 348 373 325 349C302 326 268 317 235 314C203 311 168 311 141 296C114 281 103 255 115 228C126 202 153 183 180 172C208 161 240 156 264 141C284 128 296 110 296 88" stroke="url(#pathGradient)" stroke-width="32" stroke-linecap="round" stroke-linejoin="round"/>
  <path d="M224 116C194 116 154 127 131 153C108 180 107 214 134 233C161 253 201 248 238 254C274 259 305 277 306 307C307 338 272 354 241 363C210 372 179 376 149 387C118 398 90 417 89 447C88 481 126 497 161 504C197 512 240 510 273 499C307 488 339 468 349 438C360 407 348 373 325 349C302 326 268 317 235 314C203 311 168 311 141 296C114 281 103 255 115 228C126 202 153 183 180 172C208 161 240 156 264 141C284 128 296 110 296 88" stroke="#B99057" stroke-width="3" stroke-linecap="round" stroke-linejoin="round" opacity="0.45"/>

  <g fill="#2C8736" opacity="0.95">
    <circle cx="83" cy="462" r="23"/><circle cx="119" cy="514" r="20"/><circle cx="179" cy="545" r="24"/><circle cx="347" cy="454" r="24"/><circle cx="376" cy="396" r="19"/><circle cx="78" cy="302" r="22"/><circle cx="100" cy="175" r="20"/><circle cx="149" cy="130" r="24"/><circle cx="209" cy="121" r="21"/><circle cx="340" cy="166" r="25"/><circle cx="379" cy="214" r="21"/><circle cx="272" cy="176" r="21"/>
  </g>
  <g fill="#8A5527">
    <rect x="76" y="478" width="12" height="28" rx="6"/><rect x="113" y="532" width="10" height="25" rx="5"/><rect x="174" y="560" width="10" height="23" rx="5"/><rect x="342" y="477" width="12" height="26" rx="6"/><rect x="372" y="416" width="10" height="24" rx="5"/><rect x="73" y="322" width="10" height="24" rx="5"/><rect x="95" y="194" width="10" height="24" rx="5"/><rect x="142" y="150" width="11" height="25" rx="5"/><rect x="204" y="141" width="10" height="22" rx="5"/><rect x="334" y="186" width="12" height="25" rx="6"/><rect x="373" y="232" width="10" height="23" rx="5"/><rect x="265" y="195" width="10" height="24" rx="5"/>
  </g>

  <g transform="translate(292 208)">
    <path d="M2 47L18 11H54L70 47V81H2V47Z" fill="#C87820"/>
    <path d="M8 40L24 20H48L64 40V69H8V40Z" fill="#F3B33D"/>
    <path d="M8 47H64" stroke="#9A551B" stroke-width="4"/>
    <rect x="30" y="45" width="12" height="18" rx="3" fill="#8A4A19"/>
    <rect x="33" y="49" width="6" height="7" rx="2" fill="#F7E27B"/>
    <path d="M35 20V69" stroke="#9A551B" stroke-width="4"/>
  </g>

  <g fill="#FFF074" opacity="0.95">
    <path d="M363 170L367 180L377 184L367 188L363 198L359 188L349 184L359 180L363 170Z"/>
    <path d="M326 201L329 207L336 210L329 213L326 219L323 213L316 210L323 207L326 201Z"/>
  </g>
</svg>
